<?xml version="1.0" encoding="UTF-8" standalone="no"?>
<!DOCTYPE svg PUBLIC "-//W3C//DTD SVG 1.1//EN" "http://www.w3.org/Graphics/SVG/1.1/DTD/svg11.dtd">
<!-- Created with Vectornator (http://vectornator.io/) -->
<svg height="100%" stroke-miterlimit="10" style="fill-rule:nonzero;clip-rule:evenodd;stroke-linecap:round;stroke-linejoin:round;" version="1.1" viewBox="0 0 1024 1024" width="100%" xml:space="preserve" xmlns="http://www.w3.org/2000/svg" xmlns:vectornator="http://vectornator.io" xmlns:xlink="http://www.w3.org/1999/xlink">
<defs/>
<g id="Layer-2" vectornator:layerName="Layer 2"/>
<g id="Layer-1" vectornator:layerName="Layer 1">
<g opacity="1" vectornator:layerName="Curve 1">
<path d="M249.438 283.594C239.918 283.591 230.646 285.451 221.656 288.5C218.008 288.729 215.336 293.481 215.688 299.094C216.039 304.707 219.258 309.072 222.906 308.844C228.342 306.968 233.918 305.816 239.688 305.781C255.902 305.684 271.373 313.815 280.781 326.969C286.383 334.801 289.563 343.937 291 353.406C293.596 370.514 291.633 387.999 287.438 404.688C287.368 404.963 287.258 405.225 287.188 405.5C283.891 406.005 280.568 406.391 277.312 407.031C255.405 411.339 234.037 419.697 218.625 436.469C215.781 439.564 213.206 442.92 210.906 446.438C206.633 452.976 203.388 460.147 200.969 467.562C197.996 476.674 196.763 486.145 196.219 495.688C195.725 504.341 195.764 513.235 197.562 521.75C198.491 526.148 199.95 530.65 202.688 534.281C203.662 535.574 204.791 536.756 206.094 537.719C213.048 542.861 222.668 541.278 230.062 538C236.784 535.021 242.898 530.631 248.094 525.438C250.93 522.602 253.446 519.434 255.875 516.25C260.466 510.231 264.467 503.849 268.375 497.375C271.652 491.948 274.742 486.386 277.875 480.875C289.21 460.938 299.48 440.294 307 418.594C311.846 418.352 316.71 418.22 321.562 418.406C337.259 419.008 353.022 422 367.375 428.531C370.428 429.92 373.392 431.453 376.281 433.156C377.604 433.936 378.993 434.717 380.188 435.688C381.613 436.846 382.864 438.175 384.062 439.562C387.688 443.76 390.755 448.46 393.688 453.156C397.725 459.622 401.459 466.261 405.406 472.781C407.352 475.996 409.325 479.255 411.688 482.188C412.927 483.726 414.351 485.292 416.219 486.062C417.756 486.696 419.511 486.812 421.156 486.781C422.758 486.751 424.355 486.52 425.906 486.125C434.285 483.989 440.859 477.622 446.062 471.031C447.944 468.649 449.631 466.124 451.438 463.688C454.235 459.916 456.985 456.113 459.656 452.25C464.559 445.158 469.355 437.997 474.812 431.312C480.567 424.265 487.098 417.523 495.219 413.219C497.732 411.886 500.389 410.814 503.125 410.031C504.243 409.711 505.309 409.419 506.469 409.375C510.62 409.217 514.787 410.761 518.562 412.312C525.384 415.116 531.747 418.892 538.5 421.844C540.576 422.751 542.688 423.586 544.875 424.188C549.371 425.424 554.107 425.936 558.719 426.531C564.792 427.316 570.898 427.987 577 428.5C580.207 428.77 583.435 429.066 586.656 429.062C591.27 429.057 595.924 428.658 600.5 428.094C619.15 425.794 636.984 419.752 654.875 414.281C658.781 413.087 662.657 411.773 666.594 410.688C671.322 409.384 676.171 408.347 680.938 407.188C682.416 406.828 683.91 406.362 685.406 406.094C686.518 405.895 687.69 405.844 688.812 405.719C691.308 405.44 693.786 405.154 696.281 404.875C699.115 404.558 701.969 404.134 704.812 403.938C707.421 403.757 710.077 403.788 712.688 403.875C721.295 404.163 730.466 405.783 736.906 411.969C743.985 418.768 746.614 429.016 747.594 438.469C749.404 455.942 746.294 473.522 741.75 490.344C734.218 518.228 722.782 544.979 709.656 570.656C691.432 606.308 669.683 640.164 645.938 672.375C637.454 683.883 628.812 695.365 618.719 705.531C614.93 709.348 610.976 713.049 606.719 716.344C602.642 719.498 597.892 722.632 592.656 723.281C591.134 723.47 588.915 723.603 587.531 722.781C585.919 721.824 585.216 719.685 584.719 718C583.809 714.917 583.314 711.784 582.031 708.812C581.538 707.887 579.986 707.772 578.562 708.531C577.139 709.29 576.382 710.637 576.875 711.562C578.228 714.68 578.665 718.039 579.719 721.25C580.377 723.254 581.299 725.185 583.031 726.469C584.998 727.927 587.901 727.959 590.219 727.812C595.474 727.48 600.412 725.145 604.781 722.344C611.225 718.212 616.935 712.916 622.312 707.5C630.817 698.934 638.365 689.462 645.594 679.812C668.501 649.237 689.644 617.234 707.844 583.625C719.866 561.424 730.406 538.51 739.125 514.812C742.307 506.164 745.224 497.417 747.781 488.562C751.157 476.873 753.638 464.972 754.5 452.812C754.984 445.984 754.983 439.109 754.094 432.312C752.827 422.633 749.625 412.521 742.125 405.844C736.903 401.194 730.148 398.956 723.344 397.906C719.483 397.31 715.592 397.097 711.688 397.062C710.238 397.05 708.76 397.017 707.312 397.094C705.589 397.185 703.874 397.43 702.156 397.594C698.847 397.909 695.528 398.216 692.219 398.531C690.463 398.698 688.647 398.78 686.906 399.062C685.575 399.279 684.254 399.639 682.938 399.938C680.123 400.576 677.314 401.236 674.5 401.875C672.031 402.435 669.514 402.928 667.062 403.562C663.803 404.406 660.578 405.408 657.344 406.344C644.018 410.197 630.762 414.474 617.156 417.25C611.3 418.445 605.368 419.354 599.406 419.812C596.507 420.036 593.597 420.214 590.688 420.156C587.792 420.099 584.878 419.762 582 419.469C578.775 419.14 575.56 418.75 572.344 418.344C568.44 417.85 564.541 417.313 560.656 416.688C557.734 416.217 554.751 415.81 551.906 414.969C550.11 414.437 548.354 413.69 546.656 412.906C538.621 409.197 531.183 404.299 522.812 401.312C517.31 399.349 511.399 398.317 505.625 399.656C502.194 400.452 498.861 401.578 495.625 402.969C475.025 411.823 461.649 430.548 449.031 448.188C445.966 452.472 442.802 456.674 439.625 460.875C437.742 463.365 435.963 465.902 433.938 468.281C432.435 470.045 430.806 471.84 428.906 473.188C428.345 473.586 427.698 474.061 427 474.188C426.866 474.212 426.73 474.187 426.594 474.188C426.481 474.077 426.387 473.962 426.281 473.844C425.993 473.521 425.667 473.154 425.406 472.812C424.384 471.474 423.476 470.058 422.594 468.625C420.037 464.471 417.711 460.169 415.344 455.906C411.251 448.537 407.19 441.118 402.375 434.188C399.445 429.97 396.181 425.69 391.906 422.75C380.09 414.623 366.302 409.397 352.344 406.375C339.079 403.503 325.427 402.63 311.812 403.094C316.009 387.667 318.551 371.745 318 355.75C317.576 343.424 315.41 331.022 309.875 319.906C307.297 314.729 304.033 309.884 300.188 305.562C287.327 291.11 268.638 283.6 249.438 283.594ZM282.406 421.406C276.072 440.044 267.47 457.934 258.094 475.188C254.245 482.27 250.364 489.362 246.281 496.312C242.771 502.288 239.076 508.174 234.781 513.625C232.843 516.085 230.851 518.279 228.281 520.094C227.88 520.377 227.392 520.712 226.969 520.969C226.574 521.208 226.164 521.389 225.75 521.594C225.243 521.845 225.068 521.898 224.25 521.25C224.027 521.074 223.851 520.897 223.656 520.688C223.409 520.421 223.178 520.173 222.969 519.875C220.771 516.746 219.845 512.699 219.188 509C217.915 501.839 217.767 494.404 218.156 487.156C218.443 481.807 218.967 476.433 220.094 471.188C220.942 467.239 222.216 463.328 223.75 459.594C225.593 455.106 227.921 450.777 230.812 446.875C233.834 442.796 237.482 439.165 241.594 436.188C252.813 428.062 266.771 424.328 280.188 421.781C280.925 421.641 281.668 421.539 282.406 421.406Z" fill="#000002" stroke="none"/>
</g>
<g opacity="1" vectornator:layerName="Curve 2">
<path d="M845.375 481.719C844.496 481.617 843.673 481.744 842.906 482.125C842.525 482.54 842.064 482.908 841.75 483.375C840.982 484.518 840.582 485.858 840.125 487.156C839.642 488.528 839.175 489.904 838.625 491.25C838.363 491.892 838.184 492.602 837.812 493.188C837.238 494.093 836.216 494.63 835.281 495.156C834.668 495.461 834.562 496.463 835.031 497.406C835.5 498.35 836.355 498.867 836.969 498.562C837.428 498.304 837.852 497.968 838.344 497.781C838.85 497.589 839.396 497.435 839.938 497.438C840.597 497.441 841.229 497.682 841.875 497.812C842.534 497.946 843.191 498.087 843.844 498.25C845.195 498.588 846.535 499.035 847.906 499.281C848.524 499.392 849.154 499.515 849.781 499.5C850.327 499.487 850.838 499.32 851.375 499.219C854.441 497.695 855.032 492.624 852.688 487.906C850.929 484.368 848.012 482.025 845.375 481.719Z" fill="#000002" stroke="none"/>
</g>
</g>
</svg>
